<mxfile host="Electron" modified="2024-03-07T22:31:03.840Z" agent="Mozilla/5.0 (Windows NT 10.0; Win64; x64) AppleWebKit/537.36 (KHTML, like Gecko) draw.io/23.1.5 Chrome/120.0.6099.109 Electron/28.1.0 Safari/537.36" etag="Q33yN9_cXzuKNZCAP8uW" version="23.1.5" type="device">
  <diagram name="Страница — 1" id="KgpnrsMqIwY7Wp8qNeAr">
    <mxGraphModel dx="1195" dy="703" grid="1" gridSize="10" guides="1" tooltips="1" connect="1" arrows="1" fold="1" page="1" pageScale="1" pageWidth="827" pageHeight="1169" math="0" shadow="0">
      <root>
        <mxCell id="0" />
        <mxCell id="1" parent="0" />
        <mxCell id="f7Zuc8apwFJZ10PAn6E1-8" value="" style="rounded=0;orthogonalLoop=1;jettySize=auto;html=1;exitX=0.5;exitY=0.5;exitDx=0;exitDy=0;exitPerimeter=0;endArrow=none;endFill=0;entryX=1;entryY=0.5;entryDx=0;entryDy=0;" parent="1" source="f7Zuc8apwFJZ10PAn6E1-1" target="f7Zuc8apwFJZ10PAn6E1-63" edge="1">
          <mxGeometry relative="1" as="geometry">
            <mxPoint x="540.0000000000002" y="320" as="targetPoint" />
          </mxGeometry>
        </mxCell>
        <mxCell id="f7Zuc8apwFJZ10PAn6E1-70" style="rounded=0;orthogonalLoop=1;jettySize=auto;html=1;entryX=1;entryY=0.5;entryDx=0;entryDy=0;endArrow=none;endFill=0;exitX=0.5;exitY=0.5;exitDx=0;exitDy=0;exitPerimeter=0;" parent="1" source="f7Zuc8apwFJZ10PAn6E1-1" target="f7Zuc8apwFJZ10PAn6E1-68" edge="1">
          <mxGeometry relative="1" as="geometry" />
        </mxCell>
        <mxCell id="f7Zuc8apwFJZ10PAn6E1-103" style="rounded=0;orthogonalLoop=1;jettySize=auto;html=1;endArrow=none;endFill=0;exitX=0.5;exitY=0.5;exitDx=0;exitDy=0;exitPerimeter=0;entryX=1;entryY=0.5;entryDx=0;entryDy=0;" parent="1" source="f7Zuc8apwFJZ10PAn6E1-1" target="f7Zuc8apwFJZ10PAn6E1-102" edge="1">
          <mxGeometry relative="1" as="geometry" />
        </mxCell>
        <mxCell id="f7Zuc8apwFJZ10PAn6E1-1" value="Сотрудник" style="shape=umlActor;verticalLabelPosition=bottom;verticalAlign=top;html=1;outlineConnect=0;" parent="1" vertex="1">
          <mxGeometry x="740" y="370" width="30" height="60" as="geometry" />
        </mxCell>
        <mxCell id="f7Zuc8apwFJZ10PAn6E1-75" style="rounded=0;orthogonalLoop=1;jettySize=auto;html=1;entryX=0;entryY=0.5;entryDx=0;entryDy=0;endArrow=none;endFill=0;exitX=0.5;exitY=0.5;exitDx=0;exitDy=0;exitPerimeter=0;" parent="1" source="f7Zuc8apwFJZ10PAn6E1-2" target="f7Zuc8apwFJZ10PAn6E1-76" edge="1">
          <mxGeometry relative="1" as="geometry" />
        </mxCell>
        <mxCell id="f7Zuc8apwFJZ10PAn6E1-91" style="rounded=0;orthogonalLoop=1;jettySize=auto;html=1;entryX=0;entryY=0.5;entryDx=0;entryDy=0;endArrow=none;endFill=0;exitX=0.5;exitY=0.5;exitDx=0;exitDy=0;exitPerimeter=0;" parent="1" source="f7Zuc8apwFJZ10PAn6E1-2" target="f7Zuc8apwFJZ10PAn6E1-81" edge="1">
          <mxGeometry relative="1" as="geometry" />
        </mxCell>
        <mxCell id="f7Zuc8apwFJZ10PAn6E1-92" style="rounded=0;orthogonalLoop=1;jettySize=auto;html=1;exitX=0.5;exitY=0.5;exitDx=0;exitDy=0;exitPerimeter=0;entryX=0;entryY=0.5;entryDx=0;entryDy=0;endArrow=none;endFill=0;" parent="1" source="f7Zuc8apwFJZ10PAn6E1-2" target="f7Zuc8apwFJZ10PAn6E1-72" edge="1">
          <mxGeometry relative="1" as="geometry" />
        </mxCell>
        <mxCell id="f7Zuc8apwFJZ10PAn6E1-93" style="rounded=0;orthogonalLoop=1;jettySize=auto;html=1;exitX=0.5;exitY=0.5;exitDx=0;exitDy=0;exitPerimeter=0;entryX=0;entryY=0.5;entryDx=0;entryDy=0;endArrow=none;endFill=0;" parent="1" source="f7Zuc8apwFJZ10PAn6E1-2" target="f7Zuc8apwFJZ10PAn6E1-78" edge="1">
          <mxGeometry relative="1" as="geometry" />
        </mxCell>
        <mxCell id="f7Zuc8apwFJZ10PAn6E1-71" style="rounded=0;orthogonalLoop=1;jettySize=auto;html=1;entryX=0;entryY=0.5;entryDx=0;entryDy=0;endArrow=none;endFill=0;exitX=0.5;exitY=0.5;exitDx=0;exitDy=0;exitPerimeter=0;" parent="1" source="f7Zuc8apwFJZ10PAn6E1-4" target="f7Zuc8apwFJZ10PAn6E1-84" edge="1">
          <mxGeometry relative="1" as="geometry" />
        </mxCell>
        <mxCell id="f7Zuc8apwFJZ10PAn6E1-73" style="rounded=0;orthogonalLoop=1;jettySize=auto;html=1;endArrow=none;endFill=0;exitX=0.5;exitY=0.5;exitDx=0;exitDy=0;exitPerimeter=0;entryX=0;entryY=0.5;entryDx=0;entryDy=0;" parent="1" source="f7Zuc8apwFJZ10PAn6E1-4" target="f7Zuc8apwFJZ10PAn6E1-67" edge="1">
          <mxGeometry relative="1" as="geometry" />
        </mxCell>
        <mxCell id="f7Zuc8apwFJZ10PAn6E1-4" value="Менеджер" style="shape=umlActor;verticalLabelPosition=bottom;verticalAlign=top;html=1;outlineConnect=0;" parent="1" vertex="1">
          <mxGeometry x="90" y="230" width="30" height="60" as="geometry" />
        </mxCell>
        <mxCell id="f7Zuc8apwFJZ10PAn6E1-15" value="" style="rounded=0;orthogonalLoop=1;jettySize=auto;html=1;exitX=0.5;exitY=0.5;exitDx=0;exitDy=0;exitPerimeter=0;endArrow=none;endFill=0;entryX=1;entryY=0.5;entryDx=0;entryDy=0;" parent="1" source="f7Zuc8apwFJZ10PAn6E1-1" target="f7Zuc8apwFJZ10PAn6E1-69" edge="1">
          <mxGeometry relative="1" as="geometry">
            <mxPoint x="289" y="540" as="sourcePoint" />
            <mxPoint x="390.1737230488843" y="443.2994027965656" as="targetPoint" />
          </mxGeometry>
        </mxCell>
        <mxCell id="f7Zuc8apwFJZ10PAn6E1-88" style="rounded=0;orthogonalLoop=1;jettySize=auto;html=1;entryX=1;entryY=0.5;entryDx=0;entryDy=0;dashed=1;exitX=0;exitY=0.5;exitDx=0;exitDy=0;" parent="1" source="f7Zuc8apwFJZ10PAn6E1-66" target="f7Zuc8apwFJZ10PAn6E1-76" edge="1">
          <mxGeometry relative="1" as="geometry" />
        </mxCell>
        <mxCell id="f7Zuc8apwFJZ10PAn6E1-89" value="extend" style="edgeLabel;html=1;align=center;verticalAlign=middle;resizable=0;points=[];" parent="f7Zuc8apwFJZ10PAn6E1-88" vertex="1" connectable="0">
          <mxGeometry x="-0.1973" relative="1" as="geometry">
            <mxPoint as="offset" />
          </mxGeometry>
        </mxCell>
        <mxCell id="f7Zuc8apwFJZ10PAn6E1-66" value="Изменить информцию" style="ellipse;whiteSpace=wrap;html=1;" parent="1" vertex="1">
          <mxGeometry x="505" y="570" width="178" height="40" as="geometry" />
        </mxCell>
        <mxCell id="f7Zuc8apwFJZ10PAn6E1-68" value="Проверить срок использования своей одежды" style="ellipse;whiteSpace=wrap;html=1;" parent="1" vertex="1">
          <mxGeometry x="446" y="440" width="242" height="50" as="geometry" />
        </mxCell>
        <mxCell id="f7Zuc8apwFJZ10PAn6E1-69" value="Изменить данные профиля" style="ellipse;whiteSpace=wrap;html=1;" parent="1" vertex="1">
          <mxGeometry x="451" y="510" width="232" height="40" as="geometry" />
        </mxCell>
        <mxCell id="f7Zuc8apwFJZ10PAn6E1-72" value="Посмотреть информцию о одежде на складе" style="ellipse;whiteSpace=wrap;html=1;" parent="1" vertex="1">
          <mxGeometry x="180" y="505" width="246.25" height="50" as="geometry" />
        </mxCell>
        <mxCell id="f7Zuc8apwFJZ10PAn6E1-76" value="Посмотреть информцию о выдаче одежды" style="ellipse;whiteSpace=wrap;html=1;" parent="1" vertex="1">
          <mxGeometry x="176.87" y="567.87" width="244" height="44.26" as="geometry" />
        </mxCell>
        <mxCell id="f7Zuc8apwFJZ10PAn6E1-78" value="Посмотреть заявки на одежду" style="ellipse;whiteSpace=wrap;html=1;" parent="1" vertex="1">
          <mxGeometry x="180" y="630" width="231" height="43.75" as="geometry" />
        </mxCell>
        <mxCell id="f7Zuc8apwFJZ10PAn6E1-79" value="Изменить статус заявок" style="ellipse;whiteSpace=wrap;html=1;" parent="1" vertex="1">
          <mxGeometry x="503" y="627.5" width="182" height="42.5" as="geometry" />
        </mxCell>
        <mxCell id="f7Zuc8apwFJZ10PAn6E1-81" value="Посмотреть сведения о поступлении спецодежды на склад" style="ellipse;whiteSpace=wrap;html=1;" parent="1" vertex="1">
          <mxGeometry x="180" y="440" width="246.25" height="50" as="geometry" />
        </mxCell>
        <mxCell id="f7Zuc8apwFJZ10PAn6E1-94" style="rounded=0;orthogonalLoop=1;jettySize=auto;html=1;entryX=1;entryY=0.5;entryDx=0;entryDy=0;dashed=1;exitX=0;exitY=0.5;exitDx=0;exitDy=0;" parent="1" source="f7Zuc8apwFJZ10PAn6E1-79" target="f7Zuc8apwFJZ10PAn6E1-78" edge="1">
          <mxGeometry relative="1" as="geometry">
            <mxPoint x="540" y="720" as="sourcePoint" />
            <mxPoint x="450" y="720" as="targetPoint" />
          </mxGeometry>
        </mxCell>
        <mxCell id="f7Zuc8apwFJZ10PAn6E1-95" value="extend" style="edgeLabel;html=1;align=center;verticalAlign=middle;resizable=0;points=[];" parent="f7Zuc8apwFJZ10PAn6E1-94" vertex="1" connectable="0">
          <mxGeometry x="-0.1973" relative="1" as="geometry">
            <mxPoint as="offset" />
          </mxGeometry>
        </mxCell>
        <mxCell id="f7Zuc8apwFJZ10PAn6E1-104" style="rounded=0;orthogonalLoop=1;jettySize=auto;html=1;exitX=0;exitY=0.5;exitDx=0;exitDy=0;endArrow=none;endFill=0;entryX=0.5;entryY=0.5;entryDx=0;entryDy=0;entryPerimeter=0;" parent="1" source="f7Zuc8apwFJZ10PAn6E1-102" target="f7Zuc8apwFJZ10PAn6E1-4" edge="1">
          <mxGeometry relative="1" as="geometry" />
        </mxCell>
        <mxCell id="f7Zuc8apwFJZ10PAn6E1-105" value="" style="rounded=0;orthogonalLoop=1;jettySize=auto;html=1;endArrow=block;endFill=0;" parent="1" source="f7Zuc8apwFJZ10PAn6E1-4" edge="1">
          <mxGeometry relative="1" as="geometry">
            <mxPoint x="105" y="490" as="targetPoint" />
            <mxPoint x="105" y="440" as="sourcePoint" />
          </mxGeometry>
        </mxCell>
        <mxCell id="f7Zuc8apwFJZ10PAn6E1-2" value="Работник склада" style="shape=umlActor;verticalLabelPosition=bottom;verticalAlign=top;html=1;outlineConnect=0;" parent="1" vertex="1">
          <mxGeometry x="90" y="500" width="30" height="60" as="geometry" />
        </mxCell>
        <mxCell id="_Gf0fzwr_K4EokXnlh5w-2" value="ИС «Учёт и выдача спецодежды на предприятии»&amp;nbsp;" style="shape=umlFrame;whiteSpace=wrap;html=1;pointerEvents=0;recursiveResize=0;container=1;collapsible=0;width=320;height=30;" vertex="1" parent="1">
          <mxGeometry x="170" y="80" width="540" height="620" as="geometry" />
        </mxCell>
        <mxCell id="f7Zuc8apwFJZ10PAn6E1-102" value="Обратиться с жалобой на одежду" style="ellipse;whiteSpace=wrap;html=1;" parent="_Gf0fzwr_K4EokXnlh5w-2" vertex="1">
          <mxGeometry x="291" y="160" width="242" height="40" as="geometry" />
        </mxCell>
        <mxCell id="k1tug-46zGNNcUvnf5VH-1" value="Добавить персонал в систему" style="ellipse;whiteSpace=wrap;html=1;" parent="_Gf0fzwr_K4EokXnlh5w-2" vertex="1">
          <mxGeometry x="23.370000000000005" y="78.16000000000003" width="235.5" height="37.9" as="geometry" />
        </mxCell>
        <mxCell id="k1tug-46zGNNcUvnf5VH-13" value="Посмотреть информацию о персонале" style="ellipse;whiteSpace=wrap;html=1;" parent="_Gf0fzwr_K4EokXnlh5w-2" vertex="1">
          <mxGeometry x="331" y="19.999999999999986" width="202" height="47.11" as="geometry" />
        </mxCell>
        <mxCell id="k1tug-46zGNNcUvnf5VH-11" style="rounded=0;orthogonalLoop=1;jettySize=auto;html=1;dashed=1;entryX=0.5;entryY=0;entryDx=0;entryDy=0;exitX=0;exitY=0.5;exitDx=0;exitDy=0;" parent="_Gf0fzwr_K4EokXnlh5w-2" source="k1tug-46zGNNcUvnf5VH-13" target="k1tug-46zGNNcUvnf5VH-1" edge="1">
          <mxGeometry relative="1" as="geometry">
            <mxPoint x="136.93499999999995" y="42.109999999999886" as="targetPoint" />
          </mxGeometry>
        </mxCell>
        <mxCell id="k1tug-46zGNNcUvnf5VH-12" value="extend" style="edgeLabel;html=1;align=center;verticalAlign=middle;resizable=0;points=[];" parent="k1tug-46zGNNcUvnf5VH-11" vertex="1" connectable="0">
          <mxGeometry x="-0.0959" y="2" relative="1" as="geometry">
            <mxPoint as="offset" />
          </mxGeometry>
        </mxCell>
        <mxCell id="k1tug-46zGNNcUvnf5VH-4" value="Удалить персонал&amp;nbsp;" style="ellipse;whiteSpace=wrap;html=1;" parent="_Gf0fzwr_K4EokXnlh5w-2" vertex="1">
          <mxGeometry x="369" y="78.16000000000003" width="151" height="37.9" as="geometry" />
        </mxCell>
        <mxCell id="k1tug-46zGNNcUvnf5VH-5" style="rounded=0;orthogonalLoop=1;jettySize=auto;html=1;dashed=1;" parent="_Gf0fzwr_K4EokXnlh5w-2" source="k1tug-46zGNNcUvnf5VH-4" target="k1tug-46zGNNcUvnf5VH-1" edge="1">
          <mxGeometry relative="1" as="geometry" />
        </mxCell>
        <mxCell id="k1tug-46zGNNcUvnf5VH-6" value="extend" style="edgeLabel;html=1;align=center;verticalAlign=middle;resizable=0;points=[];" parent="k1tug-46zGNNcUvnf5VH-5" vertex="1" connectable="0">
          <mxGeometry x="-0.0959" y="2" relative="1" as="geometry">
            <mxPoint as="offset" />
          </mxGeometry>
        </mxCell>
        <mxCell id="k1tug-46zGNNcUvnf5VH-8" style="rounded=0;orthogonalLoop=1;jettySize=auto;html=1;exitX=0.5;exitY=0.5;exitDx=0;exitDy=0;exitPerimeter=0;entryX=0;entryY=0.5;entryDx=0;entryDy=0;endArrow=none;endFill=0;" parent="_Gf0fzwr_K4EokXnlh5w-2" source="k1tug-46zGNNcUvnf5VH-7" target="k1tug-46zGNNcUvnf5VH-1" edge="1">
          <mxGeometry relative="1" as="geometry" />
        </mxCell>
        <mxCell id="k1tug-46zGNNcUvnf5VH-7" value="Администратор" style="shape=umlActor;verticalLabelPosition=bottom;verticalAlign=top;html=1;outlineConnect=0;" parent="_Gf0fzwr_K4EokXnlh5w-2" vertex="1">
          <mxGeometry x="-70" y="67.11000000000001" width="30" height="60" as="geometry" />
        </mxCell>
        <mxCell id="f7Zuc8apwFJZ10PAn6E1-84" value="Проверить срок использования всей одежды" style="ellipse;whiteSpace=wrap;html=1;" parent="_Gf0fzwr_K4EokXnlh5w-2" vertex="1">
          <mxGeometry x="18.870000000000005" y="270" width="240" height="40" as="geometry" />
        </mxCell>
        <mxCell id="f7Zuc8apwFJZ10PAn6E1-67" value="Посмотреть информцию о сотрудниках" style="ellipse;whiteSpace=wrap;html=1;" parent="_Gf0fzwr_K4EokXnlh5w-2" vertex="1">
          <mxGeometry x="18.870000000000005" y="210" width="240" height="40" as="geometry" />
        </mxCell>
        <mxCell id="f7Zuc8apwFJZ10PAn6E1-63" value="Создать заявку на получение одежды" style="ellipse;whiteSpace=wrap;html=1;" parent="_Gf0fzwr_K4EokXnlh5w-2" vertex="1">
          <mxGeometry x="280" y="300" width="238" height="40" as="geometry" />
        </mxCell>
        <mxCell id="f7Zuc8apwFJZ10PAn6E1-64" value="Заполнить данные для получения" style="ellipse;whiteSpace=wrap;html=1;" parent="_Gf0fzwr_K4EokXnlh5w-2" vertex="1">
          <mxGeometry x="280" y="220" width="238" height="40" as="geometry" />
        </mxCell>
        <mxCell id="f7Zuc8apwFJZ10PAn6E1-18" style="rounded=0;orthogonalLoop=1;jettySize=auto;html=1;dashed=1;exitX=0.5;exitY=0;exitDx=0;exitDy=0;entryX=0.5;entryY=1;entryDx=0;entryDy=0;" parent="_Gf0fzwr_K4EokXnlh5w-2" source="f7Zuc8apwFJZ10PAn6E1-63" target="f7Zuc8apwFJZ10PAn6E1-64" edge="1">
          <mxGeometry relative="1" as="geometry">
            <mxPoint x="200" y="240" as="sourcePoint" />
          </mxGeometry>
        </mxCell>
        <mxCell id="f7Zuc8apwFJZ10PAn6E1-19" value="include" style="edgeLabel;html=1;align=center;verticalAlign=middle;resizable=0;points=[];" parent="f7Zuc8apwFJZ10PAn6E1-18" vertex="1" connectable="0">
          <mxGeometry x="-0.0391" y="-1" relative="1" as="geometry">
            <mxPoint as="offset" />
          </mxGeometry>
        </mxCell>
      </root>
    </mxGraphModel>
  </diagram>
</mxfile>
